<svg width="32" height="32" viewBox="0 0 32 32" fill="none" xmlns="http://www.w3.org/2000/svg">
<g id="account-circle">
<path id="Shape" fill-rule="evenodd" clip-rule="evenodd" d="M16 0C7.2 0 0 7.2 0 16C0 24.8 7.2 32 16 32C24.8 32 32 24.8 32 16C32 7.2 24.8 0 16 0ZM16 4.8C18.72 4.8 20.8 6.88 20.8 9.6C20.8 12.32 18.72 14.4 16 14.4C13.28 14.4 11.2 12.32 11.2 9.6C11.2 6.88 13.28 4.8 16 4.8ZM16 27.5198C12 27.5198 8.48 25.4398 6.4 22.3998C6.4 19.1998 12.8 17.4398 16 17.4398C19.2 17.4398 25.6 19.1998 25.6 22.3998C23.52 25.4398 20 27.5198 16 27.5198Z" fill="black"/>
</g>
</svg>
