<svg width="94" height="94" viewBox="0 0 94 94" fill="none" xmlns="http://www.w3.org/2000/svg">
<g id="add-circle-outline">
<path id="Shape" fill-rule="evenodd" clip-rule="evenodd" d="M51.7 23.5H42.3V42.3H23.5V51.7H42.3V70.5H51.7V51.7H70.5V42.3H51.7V23.5ZM47 0C21.15 0 0 21.15 0 47C0 72.85 21.15 94 47 94C72.85 94 94 72.85 94 47C94 21.15 72.85 0 47 0ZM47 84.5998C26.32 84.5998 9.40004 67.6798 9.40004 46.9998C9.40004 26.3198 26.32 9.39984 47 9.39984C67.68 9.39984 84.6 26.3198 84.6 46.9998C84.6 67.6798 67.68 84.5998 47 84.5998Z" fill="#01C2B6"/>
</g>
</svg>
