<svg width="33" height="33" viewBox="0 0 33 33" fill="none" xmlns="http://www.w3.org/2000/svg">
<g clip-path="url(#clip0)">
<path d="M16.501 2.58423C8.81505 2.58423 2.58527 8.81401 2.58527 16.5001C2.58527 22.038 5.82857 26.8055 10.5115 29.0453L10.9471 20.629C10.9471 20.629 10.1278 20.3602 9.94845 20.2726C8.21073 19.5072 6.94836 17.2534 6.94836 14.3283C6.94836 11.1364 9.42378 8.38704 11.817 8.36433C11.8201 8.36433 11.8201 8.36433 11.8221 8.36433C11.8231 8.36433 11.8251 8.36433 11.8261 8.36433C14.2198 8.38695 16.6953 11.1363 16.6953 14.3283C16.6953 17.2534 15.4314 19.5062 13.6973 20.2726C13.6836 20.2786 12.6907 20.6392 12.6907 20.6392L13.1771 29.997C14.2445 30.2597 15.3544 30.4139 16.5029 30.4139C18.0519 30.4139 19.5353 30.1501 20.927 29.6837L21.3581 21.3441C20.2222 21.0943 19.2533 20.3712 18.646 19.4639C17.8938 18.337 19.2251 8.36337 19.2251 8.36337H20.0912V17.7227H20.9513V8.36441H21.8919V17.7247H22.748V8.36441H23.7239V17.7247H24.5828V8.36441H25.2475C25.2475 8.36441 26.5789 18.3381 25.8256 19.465C25.2243 20.3633 24.2646 21.0844 23.1428 21.3401C23.1227 21.3473 23.1045 21.3542 23.1045 21.3542L23.4791 28.5277C27.6243 26.1177 30.4179 21.6403 30.4179 16.5002C30.4158 8.8141 24.186 2.58423 16.501 2.58423Z" fill="black"/>
<path d="M8.98515 12.9134C9.03499 12.7105 9.10199 12.5176 9.10503 12.5141C9.12669 12.4381 9.08639 12.3605 9.00379 12.3112C8.92526 12.2689 8.82956 12.2906 8.78527 12.3585C8.78527 12.3585 8.6901 12.5101 8.55211 12.7342C8.43986 12.9271 8.2737 13.2352 8.16033 13.6189C8.06212 13.9552 7.94485 14.4024 7.89197 14.9029C7.86935 15.1658 7.86424 15.4029 7.8723 15.6471C7.89197 15.9255 7.93418 16.1637 8.0148 16.4361C8.28818 17.2131 8.49872 17.9654 9.25853 18.7076C9.49871 18.9544 9.74549 19.1225 9.92369 19.2464L9.98662 19.2907C10.0249 19.3159 10.0617 19.3391 10.0979 19.3603C10.2475 19.4388 10.3476 19.467 10.3658 19.4709C10.4403 19.4911 10.5169 19.4548 10.5486 19.3944C10.5783 19.331 10.5566 19.2514 10.4947 19.2011C10.4947 19.2011 10.408 19.1256 10.2968 18.9846C10.2208 18.899 10.1382 18.7751 10.0421 18.6352C9.97414 18.5365 9.89405 18.4247 9.81951 18.3159C9.4494 17.7509 9.236 16.9624 8.94086 16.1547C8.88296 15.9794 8.83563 15.7523 8.81795 15.5595C8.79437 15.3369 8.78328 15.1224 8.78328 14.9235C8.7747 14.4613 8.79533 14.0644 8.83563 13.7427C8.88192 13.3797 8.91815 13.1073 8.98515 12.9134Z" fill="black"/>
<path d="M16.501 0C7.40356 0 0 7.40201 0 16.5C0 25.5959 7.40356 33 16.501 33C25.598 33 33 25.5959 33 16.5C33 7.40201 25.598 0 16.501 0ZM16.501 31.7694C8.08077 31.7694 1.23013 24.9192 1.23013 16.5C1.23013 8.07974 8.08077 1.22909 16.501 1.22909C24.9202 1.22909 31.7714 8.07974 31.7714 16.5C31.7713 24.9192 24.9201 31.7694 16.501 31.7694Z" fill="black"/>
</g>
<defs>
<clipPath id="clip0">
<rect width="33" height="33" fill="white"/>
</clipPath>
</defs>
</svg>
