<svg width="230" height="50" viewBox="0 0 230 50" fill="none" xmlns="http://www.w3.org/2000/svg">
<path d="M55.071 23.12C56.413 23.406 57.491 24.077 58.305 25.133C59.119 26.167 59.526 27.355 59.526 28.697C59.526 30.633 58.844 32.173 57.48 33.317C56.138 34.439 54.257 35 51.837 35H41.046V11.834H51.474C53.828 11.834 55.665 12.373 56.985 13.451C58.327 14.529 58.998 15.992 58.998 17.84C58.998 19.204 58.635 20.337 57.909 21.239C57.205 22.141 56.259 22.768 55.071 23.12ZM46.689 21.239H50.385C51.309 21.239 52.013 21.03 52.497 20.612C53.003 20.194 53.256 19.589 53.256 18.797C53.256 17.983 53.003 17.367 52.497 16.949C52.013 16.509 51.309 16.289 50.385 16.289H46.689V21.239ZM50.847 30.512C51.793 30.512 52.519 30.292 53.025 29.852C53.553 29.412 53.817 28.774 53.817 27.938C53.817 27.124 53.542 26.486 52.992 26.024C52.464 25.54 51.727 25.298 50.781 25.298H46.689V30.512H50.847ZM80.1569 25.463C80.1569 25.969 80.1239 26.508 80.0579 27.08H67.2869C67.3749 28.246 67.7379 29.137 68.3759 29.753C69.0139 30.369 69.8169 30.677 70.7849 30.677C72.1929 30.677 73.1719 30.083 73.7219 28.895H79.7279C79.4199 30.105 78.8589 31.194 78.0449 32.162C77.2529 33.13 76.2519 33.889 75.0419 34.439C73.8319 34.989 72.4789 35.264 70.9829 35.264C69.1789 35.264 67.5729 34.879 66.1649 34.109C64.7569 33.339 63.6569 32.239 62.8649 30.809C62.0729 29.379 61.6769 27.707 61.6769 25.793C61.6769 23.879 62.0619 22.207 62.8319 20.777C63.6239 19.347 64.7239 18.247 66.1319 17.477C67.5399 16.707 69.1569 16.322 70.9829 16.322C72.7649 16.322 74.3489 16.696 75.7349 17.444C77.1209 18.192 78.1989 19.259 78.9689 20.645C79.7609 22.031 80.1569 23.637 80.1569 25.463ZM74.3819 24.209C74.3819 23.153 74.0519 22.328 73.3919 21.734C72.7319 21.14 71.9069 20.843 70.9169 20.843C69.9489 20.843 69.1349 21.14 68.4749 21.734C67.8369 22.306 67.4409 23.131 67.2869 24.209H74.3819ZM93.3969 30.215V35H90.5259C88.4799 35 86.8849 34.505 85.7409 33.515C84.5969 32.503 84.0249 30.864 84.0249 28.598V21.272H81.7809V16.586H84.0249V12.098H89.6679V16.586H93.3639V21.272H89.6679V28.664C89.6679 29.214 89.7999 29.61 90.0639 29.852C90.3279 30.094 90.7679 30.215 91.3839 30.215H93.3969ZM95.4181 25.76C95.4181 23.868 95.7701 22.207 96.4741 20.777C97.2001 19.347 98.1791 18.247 99.4111 17.477C100.643 16.707 102.018 16.322 103.536 16.322C104.834 16.322 105.967 16.586 106.935 17.114C107.925 17.642 108.684 18.335 109.212 19.193V16.586H114.855V35H109.212V32.393C108.662 33.251 107.892 33.944 106.902 34.472C105.934 35 104.801 35.264 103.503 35.264C102.007 35.264 100.643 34.879 99.4111 34.109C98.1791 33.317 97.2001 32.206 96.4741 30.776C95.7701 29.324 95.4181 27.652 95.4181 25.76ZM109.212 25.793C109.212 24.385 108.816 23.274 108.024 22.46C107.254 21.646 106.308 21.239 105.186 21.239C104.064 21.239 103.107 21.646 102.315 22.46C101.545 23.252 101.16 24.352 101.16 25.76C101.16 27.168 101.545 28.29 102.315 29.126C103.107 29.94 104.064 30.347 105.186 30.347C106.308 30.347 107.254 29.94 108.024 29.126C108.816 28.312 109.212 27.201 109.212 25.793Z" fill="#F97C36"/>
<path d="M117.816 25.793C117.816 23.879 118.201 22.207 118.971 20.777C119.763 19.347 120.852 18.247 122.238 17.477C123.646 16.707 125.252 16.322 127.056 16.322C129.366 16.322 131.291 16.927 132.831 18.137C134.393 19.347 135.416 21.052 135.9 23.252H129.894C129.388 21.844 128.409 21.14 126.957 21.14C125.923 21.14 125.098 21.547 124.482 22.361C123.866 23.153 123.558 24.297 123.558 25.793C123.558 27.289 123.866 28.444 124.482 29.258C125.098 30.05 125.923 30.446 126.957 30.446C128.409 30.446 129.388 29.742 129.894 28.334H135.9C135.416 30.49 134.393 32.184 132.831 33.416C131.269 34.648 129.344 35.264 127.056 35.264C125.252 35.264 123.646 34.879 122.238 34.109C120.852 33.339 119.763 32.239 118.971 30.809C118.201 29.379 117.816 27.707 117.816 25.793ZM150.237 16.388C152.349 16.388 154.043 17.092 155.319 18.5C156.595 19.886 157.233 21.8 157.233 24.242V35H151.623V25.001C151.623 23.769 151.304 22.812 150.666 22.13C150.028 21.448 149.17 21.107 148.092 21.107C147.014 21.107 146.156 21.448 145.518 22.13C144.88 22.812 144.561 23.769 144.561 25.001V35H138.918V10.58H144.561V19.061C145.133 18.247 145.914 17.598 146.904 17.114C147.894 16.63 149.005 16.388 150.237 16.388ZM169.536 35.264C167.732 35.264 166.104 34.879 164.652 34.109C163.222 33.339 162.089 32.239 161.253 30.809C160.439 29.379 160.032 27.707 160.032 25.793C160.032 23.901 160.45 22.24 161.286 20.81C162.122 19.358 163.266 18.247 164.718 17.477C166.17 16.707 167.798 16.322 169.602 16.322C171.406 16.322 173.034 16.707 174.486 17.477C175.938 18.247 177.082 19.358 177.918 20.81C178.754 22.24 179.172 23.901 179.172 25.793C179.172 27.685 178.743 29.357 177.885 30.809C177.049 32.239 175.894 33.339 174.42 34.109C172.968 34.879 171.34 35.264 169.536 35.264ZM169.536 30.413C170.614 30.413 171.527 30.017 172.275 29.225C173.045 28.411 173.43 27.267 173.43 25.793C173.43 24.319 173.056 23.186 172.308 22.394C171.582 21.58 170.68 21.173 169.602 21.173C168.502 21.173 167.589 21.569 166.863 22.361C166.137 23.153 165.774 24.297 165.774 25.793C165.774 27.267 166.126 28.411 166.83 29.225C167.556 30.017 168.458 30.413 169.536 30.413ZM187.809 19.193C188.359 18.335 189.118 17.642 190.086 17.114C191.054 16.586 192.187 16.322 193.485 16.322C195.003 16.322 196.378 16.707 197.61 17.477C198.842 18.247 199.81 19.347 200.514 20.777C201.24 22.207 201.603 23.868 201.603 25.76C201.603 27.652 201.24 29.324 200.514 30.776C199.81 32.206 198.842 33.317 197.61 34.109C196.378 34.879 195.003 35.264 193.485 35.264C192.209 35.264 191.076 35 190.086 34.472C189.118 33.944 188.359 33.262 187.809 32.426V43.778H182.166V16.586H187.809V19.193ZM195.861 25.76C195.861 24.352 195.465 23.252 194.673 22.46C193.903 21.646 192.946 21.239 191.802 21.239C190.68 21.239 189.723 21.646 188.931 22.46C188.161 23.274 187.776 24.385 187.776 25.793C187.776 27.201 188.161 28.312 188.931 29.126C189.723 29.94 190.68 30.347 191.802 30.347C192.924 30.347 193.881 29.94 194.673 29.126C195.465 28.29 195.861 27.168 195.861 25.76Z" fill="#01C2B6"/>
<g clip-path="url(#clip0)">
<path d="M16.501 10.5842C8.81505 10.5842 2.58527 16.814 2.58527 24.5001C2.58527 30.038 5.82857 34.8055 10.5115 37.0453L10.9471 28.629C10.9471 28.629 10.1278 28.3602 9.94845 28.2726C8.21073 27.5072 6.94836 25.2534 6.94836 22.3283C6.94836 19.1364 9.42378 16.387 11.817 16.3643C11.8201 16.3643 11.8201 16.3643 11.8221 16.3643C11.8231 16.3643 11.8251 16.3643 11.8261 16.3643C14.2198 16.387 16.6953 19.1363 16.6953 22.3283C16.6953 25.2534 15.4314 27.5062 13.6973 28.2726C13.6836 28.2786 12.6907 28.6392 12.6907 28.6392L13.1771 37.997C14.2445 38.2597 15.3544 38.4139 16.5029 38.4139C18.0519 38.4139 19.5353 38.1501 20.927 37.6837L21.3581 29.3441C20.2222 29.0943 19.2533 28.3712 18.646 27.4639C17.8938 26.337 19.2251 16.3634 19.2251 16.3634H20.0912V25.7227H20.9513V16.3644H21.8919V25.7247H22.748V16.3644H23.7239V25.7247H24.5828V16.3644H25.2475C25.2475 16.3644 26.5789 26.3381 25.8256 27.465C25.2243 28.3633 24.2646 29.0844 23.1428 29.3401C23.1227 29.3473 23.1045 29.3542 23.1045 29.3542L23.4791 36.5277C27.6243 34.1177 30.4179 29.6403 30.4179 24.5002C30.4158 16.8141 24.186 10.5842 16.501 10.5842Z" fill="black"/>
<path d="M8.98515 20.9134C9.03499 20.7105 9.10199 20.5176 9.10503 20.5141C9.12669 20.4381 9.08639 20.3605 9.00379 20.3112C8.92526 20.2689 8.82956 20.2906 8.78527 20.3585C8.78527 20.3585 8.6901 20.5101 8.55211 20.7342C8.43986 20.9271 8.2737 21.2352 8.16033 21.6189C8.06212 21.9552 7.94485 22.4024 7.89197 22.9029C7.86935 23.1658 7.86424 23.4029 7.8723 23.6471C7.89197 23.9255 7.93418 24.1637 8.0148 24.4361C8.28818 25.2131 8.49872 25.9654 9.25853 26.7076C9.49871 26.9544 9.74549 27.1225 9.92369 27.2464L9.98662 27.2907C10.0249 27.3159 10.0617 27.3391 10.0979 27.3603C10.2475 27.4388 10.3476 27.467 10.3658 27.4709C10.4403 27.4911 10.5169 27.4548 10.5486 27.3944C10.5783 27.331 10.5566 27.2514 10.4947 27.2011C10.4947 27.2011 10.408 27.1256 10.2968 26.9846C10.2208 26.899 10.1382 26.7751 10.0421 26.6352C9.97414 26.5365 9.89405 26.4247 9.81951 26.3159C9.4494 25.7509 9.236 24.9624 8.94086 24.1547C8.88296 23.9794 8.83563 23.7523 8.81795 23.5595C8.79437 23.3369 8.78328 23.1224 8.78328 22.9235C8.7747 22.4613 8.79533 22.0644 8.83563 21.7427C8.88192 21.3797 8.91815 21.1073 8.98515 20.9134Z" fill="black"/>
<path d="M16.501 8C7.40356 8 0 15.402 0 24.5C0 33.5959 7.40356 41 16.501 41C25.598 41 33 33.5959 33 24.5C33 15.402 25.598 8 16.501 8ZM16.501 39.7694C8.08077 39.7694 1.23013 32.9192 1.23013 24.5C1.23013 16.0797 8.08077 9.22909 16.501 9.22909C24.9202 9.22909 31.7714 16.0797 31.7714 24.5C31.7713 32.9192 24.9201 39.7694 16.501 39.7694Z" fill="black"/>
</g>
<defs>
<clipPath id="clip0">
<rect width="33" height="33" fill="white" transform="translate(0 8)"/>
</clipPath>
</defs>
</svg>
