<svg width="161" height="34" viewBox="0 0 161 34" fill="none" xmlns="http://www.w3.org/2000/svg">
<path d="M14.071 13.12C15.413 13.406 16.491 14.077 17.305 15.133C18.119 16.167 18.526 17.355 18.526 18.697C18.526 20.633 17.844 22.173 16.48 23.317C15.138 24.439 13.257 25 10.837 25H0.0460001V1.834H10.474C12.828 1.834 14.665 2.373 15.985 3.451C17.327 4.529 17.998 5.992 17.998 7.84C17.998 9.204 17.635 10.337 16.909 11.239C16.205 12.141 15.259 12.768 14.071 13.12ZM5.689 11.239H9.385C10.309 11.239 11.013 11.03 11.497 10.612C12.003 10.194 12.256 9.589 12.256 8.797C12.256 7.983 12.003 7.367 11.497 6.949C11.013 6.509 10.309 6.289 9.385 6.289H5.689V11.239ZM9.847 20.512C10.793 20.512 11.519 20.292 12.025 19.852C12.553 19.412 12.817 18.774 12.817 17.938C12.817 17.124 12.542 16.486 11.992 16.024C11.464 15.54 10.727 15.298 9.781 15.298H5.689V20.512H9.847ZM39.1569 15.463C39.1569 15.969 39.1239 16.508 39.0579 17.08H26.2869C26.3749 18.246 26.7379 19.137 27.3759 19.753C28.0139 20.369 28.8169 20.677 29.7849 20.677C31.1929 20.677 32.1719 20.083 32.7219 18.895H38.7279C38.4199 20.105 37.8589 21.194 37.0449 22.162C36.2529 23.13 35.2519 23.889 34.0419 24.439C32.8319 24.989 31.4789 25.264 29.9829 25.264C28.1789 25.264 26.5729 24.879 25.1649 24.109C23.7569 23.339 22.6569 22.239 21.8649 20.809C21.0729 19.379 20.6769 17.707 20.6769 15.793C20.6769 13.879 21.0619 12.207 21.8319 10.777C22.6239 9.347 23.7239 8.247 25.1319 7.477C26.5399 6.707 28.1569 6.322 29.9829 6.322C31.7649 6.322 33.3489 6.696 34.7349 7.444C36.1209 8.192 37.1989 9.259 37.9689 10.645C38.7609 12.031 39.1569 13.637 39.1569 15.463ZM33.3819 14.209C33.3819 13.153 33.0519 12.328 32.3919 11.734C31.7319 11.14 30.9069 10.843 29.9169 10.843C28.9489 10.843 28.1349 11.14 27.4749 11.734C26.8369 12.306 26.4409 13.131 26.2869 14.209H33.3819ZM52.3969 20.215V25H49.5259C47.4799 25 45.8849 24.505 44.7409 23.515C43.5969 22.503 43.0249 20.864 43.0249 18.598V11.272H40.7809V6.586H43.0249V2.098H48.6679V6.586H52.3639V11.272H48.6679V18.664C48.6679 19.214 48.7999 19.61 49.0639 19.852C49.3279 20.094 49.7679 20.215 50.3839 20.215H52.3969ZM54.4181 15.76C54.4181 13.868 54.7701 12.207 55.4741 10.777C56.2001 9.347 57.1791 8.247 58.4111 7.477C59.6431 6.707 61.0181 6.322 62.5361 6.322C63.8341 6.322 64.9671 6.586 65.9351 7.114C66.9251 7.642 67.6841 8.335 68.2121 9.193V6.586H73.8551V25H68.2121V22.393C67.6621 23.251 66.8921 23.944 65.9021 24.472C64.9341 25 63.8011 25.264 62.5031 25.264C61.0071 25.264 59.6431 24.879 58.4111 24.109C57.1791 23.317 56.2001 22.206 55.4741 20.776C54.7701 19.324 54.4181 17.652 54.4181 15.76ZM68.2121 15.793C68.2121 14.385 67.8161 13.274 67.0241 12.46C66.2541 11.646 65.3081 11.239 64.1861 11.239C63.0641 11.239 62.1071 11.646 61.3151 12.46C60.5451 13.252 60.1601 14.352 60.1601 15.76C60.1601 17.168 60.5451 18.29 61.3151 19.126C62.1071 19.94 63.0641 20.347 64.1861 20.347C65.3081 20.347 66.2541 19.94 67.0241 19.126C67.8161 18.312 68.2121 17.201 68.2121 15.793Z" fill="#F97C36"/>
<path d="M76.8156 15.793C76.8156 13.879 77.2006 12.207 77.9706 10.777C78.7626 9.347 79.8516 8.247 81.2376 7.477C82.6456 6.707 84.2516 6.322 86.0556 6.322C88.3656 6.322 90.2906 6.927 91.8306 8.137C93.3926 9.347 94.4156 11.052 94.8996 13.252H88.8936C88.3876 11.844 87.4086 11.14 85.9566 11.14C84.9226 11.14 84.0976 11.547 83.4816 12.361C82.8656 13.153 82.5576 14.297 82.5576 15.793C82.5576 17.289 82.8656 18.444 83.4816 19.258C84.0976 20.05 84.9226 20.446 85.9566 20.446C87.4086 20.446 88.3876 19.742 88.8936 18.334H94.8996C94.4156 20.49 93.3926 22.184 91.8306 23.416C90.2686 24.648 88.3436 25.264 86.0556 25.264C84.2516 25.264 82.6456 24.879 81.2376 24.109C79.8516 23.339 78.7626 22.239 77.9706 20.809C77.2006 19.379 76.8156 17.707 76.8156 15.793ZM109.237 6.388C111.349 6.388 113.043 7.092 114.319 8.5C115.595 9.886 116.233 11.8 116.233 14.242V25H110.623V15.001C110.623 13.769 110.304 12.812 109.666 12.13C109.028 11.448 108.17 11.107 107.092 11.107C106.014 11.107 105.156 11.448 104.518 12.13C103.88 12.812 103.561 13.769 103.561 15.001V25H97.9181V0.58H103.561V9.061C104.133 8.247 104.914 7.598 105.904 7.114C106.894 6.63 108.005 6.388 109.237 6.388ZM128.536 25.264C126.732 25.264 125.104 24.879 123.652 24.109C122.222 23.339 121.089 22.239 120.253 20.809C119.439 19.379 119.032 17.707 119.032 15.793C119.032 13.901 119.45 12.24 120.286 10.81C121.122 9.358 122.266 8.247 123.718 7.477C125.17 6.707 126.798 6.322 128.602 6.322C130.406 6.322 132.034 6.707 133.486 7.477C134.938 8.247 136.082 9.358 136.918 10.81C137.754 12.24 138.172 13.901 138.172 15.793C138.172 17.685 137.743 19.357 136.885 20.809C136.049 22.239 134.894 23.339 133.42 24.109C131.968 24.879 130.34 25.264 128.536 25.264ZM128.536 20.413C129.614 20.413 130.527 20.017 131.275 19.225C132.045 18.411 132.43 17.267 132.43 15.793C132.43 14.319 132.056 13.186 131.308 12.394C130.582 11.58 129.68 11.173 128.602 11.173C127.502 11.173 126.589 11.569 125.863 12.361C125.137 13.153 124.774 14.297 124.774 15.793C124.774 17.267 125.126 18.411 125.83 19.225C126.556 20.017 127.458 20.413 128.536 20.413ZM146.809 9.193C147.359 8.335 148.118 7.642 149.086 7.114C150.054 6.586 151.187 6.322 152.485 6.322C154.003 6.322 155.378 6.707 156.61 7.477C157.842 8.247 158.81 9.347 159.514 10.777C160.24 12.207 160.603 13.868 160.603 15.76C160.603 17.652 160.24 19.324 159.514 20.776C158.81 22.206 157.842 23.317 156.61 24.109C155.378 24.879 154.003 25.264 152.485 25.264C151.209 25.264 150.076 25 149.086 24.472C148.118 23.944 147.359 23.262 146.809 22.426V33.778H141.166V6.586H146.809V9.193ZM154.861 15.76C154.861 14.352 154.465 13.252 153.673 12.46C152.903 11.646 151.946 11.239 150.802 11.239C149.68 11.239 148.723 11.646 147.931 12.46C147.161 13.274 146.776 14.385 146.776 15.793C146.776 17.201 147.161 18.312 147.931 19.126C148.723 19.94 149.68 20.347 150.802 20.347C151.924 20.347 152.881 19.94 153.673 19.126C154.465 18.29 154.861 17.168 154.861 15.76Z" fill="#01C2B6"/>
</svg>
